HIERARCHY
ROOT Hips
{
  OFFSET 0.000000 0.000000 0.000000
  CHANNELS 6 Xposition Yposition Zposition Zrotation Xrotation Yrotation
  JOINT Spine
  {
    OFFSET 3.490024 46.237602 -4.422041
    CHANNELS 3 Zrotation Xrotation Yrotation
    JOINT Spine1
    {
      OFFSET 0.000000 15.000000 0.000000
      CHANNELS 3 Zrotation Xrotation Yrotation
      JOINT Neck
      {
        OFFSET 0.000000 5.000000 0.000000
        CHANNELS 3 Zrotation Xrotation Yrotation
        JOINT Head
        {
          OFFSET -5.903706 -2.810352 -31.963150
          CHANNELS 3 Zrotation Xrotation Yrotation
          End Site
          {
            OFFSET 0.0 -5.0 0.0
          }
        }
      }
      JOINT LeftShoulder
      {
        OFFSET 15.123618 -4.431909 -7.216013
        CHANNELS 3 Zrotation Xrotation Yrotation
        JOINT LeftArm
        {
          OFFSET 11.730283 -18.337841 -5.675340
          CHANNELS 3 Zrotation Xrotation Yrotation
          JOINT LeftForeArm
          {
            OFFSET -14.384380 -13.996897 -3.396709
            CHANNELS 3 Zrotation Xrotation Yrotation
            JOINT LeftHand
            {
              OFFSET -10.776947 1.211007 -1.707698
              CHANNELS 3 Zrotation Xrotation Yrotation
              End Site
              {
                OFFSET 0.0 -5.0 0.0
              }
            }
          }
        }
      }
      JOINT RightShoulder
      {
        OFFSET -15.123618 4.431909 7.216013
        CHANNELS 3 Zrotation Xrotation Yrotation
        JOINT RightArm
        {
          OFFSET -2.976873 -24.327201 5.659345
          CHANNELS 3 Zrotation Xrotation Yrotation
          JOINT RightForeArm
          {
            OFFSET -10.422778 -16.702013 -6.624770
            CHANNELS 3 Zrotation Xrotation Yrotation
            JOINT RightHand
            {
              OFFSET 1.747231 1.307654 -7.005420
              CHANNELS 3 Zrotation Xrotation Yrotation
              End Site
              {
                OFFSET 0.0 -5.0 0.0
              }
            }
          }
        }
      }
    }
  }
  JOINT LeftUpLeg
  {
    OFFSET 10.271650 -3.210069 1.111004
    CHANNELS 3 Zrotation Xrotation Yrotation
    JOINT LeftLeg
    {
      OFFSET 1.862943 -42.512225 -4.438894
      CHANNELS 3 Zrotation Xrotation Yrotation
      JOINT LeftFoot
      {
        OFFSET 0.491075 -32.534406 19.351979
        CHANNELS 3 Zrotation Xrotation Yrotation
        End Site
        {
          OFFSET 0.0 -5.0 0.0
        }
      }
    }
  }
  JOINT RightUpLeg
  {
    OFFSET -10.271650 3.210069 -1.111004
    CHANNELS 3 Zrotation Xrotation Yrotation
    JOINT RightLeg
    {
      OFFSET -13.963373 -0.690141 -33.857391
      CHANNELS 3 Zrotation Xrotation Yrotation
      JOINT RightFoot
      {
        OFFSET -8.606973 -42.712637 9.549659
        CHANNELS 3 Zrotation Xrotation Yrotation
        End Site
        {
          OFFSET 0.0 -5.0 0.0
        }
      }
    }
  }
}

MOTION
Frames: 15
Frame Time: 0.033333
0.073168 0.321797 0.066263 0.000000 0.000000 0.000000 0.000000 0.000000 0.000000 0.000000 0.000000 0.000000 0.000000 0.000000 0.000000 0.000000 0.000000 0.000000 0.000000 0.000000 0.000000 0.000000 0.000000 0.000000 0.000000 0.000000 0.000000 0.000000 0.000000 0.000000 0.000000 0.000000 0.000000 0.000000 0.000000 0.000000 0.000000 0.000000 0.000000 0.000000 0.000000 0.000000 0.000000 0.000000 0.000000 0.000000 0.000000 0.000000 0.000000 0.000000 0.000000 0.000000 0.000000 0.000000 0.000000 0.000000 0.000000 0.000000 0.000000 0.000000
0.089219 0.319872 0.069179 162.517003 -175.850739 5.964024 -0.370088 0.059873 -0.039709 0.000000 0.000000 0.000000 0.000000 0.000000 -0.000000 -0.124897 0.322272 0.766611 -0.607196 -0.181424 0.374386 0.311238 -0.273264 -0.269715 -0.653559 0.660638 -0.506504 1.164117 -0.215339 -0.250529 -0.607196 -0.181424 0.374386 -1.056422 0.207049 -0.268778 0.694054 -0.032642 -0.263163 -0.561125 -0.349879 -2.565076 -0.126695 -0.008261 -0.070545 -0.579849 0.085704 0.064453 0.412183 0.843619 0.253748 -0.126695 -0.008261 -0.070545 0.854434 -2.099922 0.260090 -0.335066 -3.266845 0.577343
0.101209 0.315960 0.074074 162.481746 -175.982472 6.090167 -0.637074 0.178012 -0.073334 0.000000 0.000000 0.000000 0.000000 0.000000 -0.000000 -0.194346 0.495642 1.225907 -0.703799 -0.202150 0.463244 0.788602 -0.755586 -0.717571 -0.759436 1.506637 -1.301927 2.239202 -0.396642 -0.311402 -0.703799 -0.202150 0.463244 -1.428169 0.790081 -0.417784 0.448283 1.130939 -0.946996 -0.665445 -0.689142 -2.714066 -0.161473 -0.042266 -0.192078 -0.529339 0.122645 0.060447 0.425583 2.033114 0.273383 -0.161473 -0.042266 -0.192078 2.589185 -6.349074 0.149615 -0.686499 -3.887159 0.610703
0.112189 0.305534 0.089736 162.659048 -176.979157 7.060455 -0.649888 0.953504 -0.128561 0.000000 0.000000 0.000000 0.000000 0.000000 -0.000000 -0.176937 0.442743 1.128888 -0.464871 -0.610427 -1.335480 1.771180 -3.056781 -2.412614 -0.083137 2.663093 -2.512313 2.811985 -0.565987 -0.872358 -0.464871 -0.610427 -1.335480 -1.491578 2.690006 -0.636722 0.632906 2.069439 -1.711291 -0.879646 -2.065794 -2.153597 0.017194 -0.349412 -1.112662 -0.749472 0.651149 0.107289 0.453116 2.950687 0.297819 0.017194 -0.349412 -1.112662 3.986535 -9.852500 -1.291270 -1.159512 -5.062458 0.715889
0.114829 0.297614 0.106566 163.395688 -177.513382 8.704350 -0.619738 1.209118 -0.143795 0.000000 0.000000 0.000000 0.000000 0.000000 -0.000000 -0.120973 0.256546 0.857124 0.092837 -0.589133 -2.137029 4.191175 -7.138466 -5.374704 0.615756 0.745203 -0.764978 2.904650 -0.513617 -0.378005 0.092837 -0.589133 -2.137029 -1.474511 3.475645 -0.717537 0.625793 1.251315 -1.160729 -0.697094 -1.276538 -2.147036 0.760013 -0.928941 -2.653946 -1.598603 0.249960 0.156396 0.973033 0.749438 0.581397 0.760013 -0.928941 -2.653946 5.263768 -13.173308 -3.536727 -1.216512 -1.346476 -0.014961
0.117569 0.280912 0.117533 164.538563 -179.698989 9.818095 -0.659035 3.329973 -0.294343 0.000000 0.000000 0.000000 0.000000 0.000000 -0.000000 0.079516 -0.387287 -0.087293 1.550287 -0.833040 -5.058877 5.837799 -9.760013 -7.136692 2.910954 1.913643 -2.142505 5.018402 -1.142882 -2.208973 1.550287 -0.833040 -5.058877 -2.732242 5.263389 -1.139107 2.748277 -0.526948 -1.105962 -1.062408 -2.257554 -2.972145 1.903431 -1.416179 -3.668749 -2.802776 0.014248 0.216952 2.322730 0.089409 1.380193 1.903431 -1.416179 -3.668749 7.436010 -18.013203 -6.467971 1.981186 2.725909 -0.153263
0.123277 0.278772 0.114379 166.187462 -179.699805 10.782098 -0.600018 3.445266 -0.298490 0.000000 0.000000 0.000000 0.000000 0.000000 -0.000000 0.229055 -0.849427 -0.758255 2.956386 -0.251966 -5.188611 6.929607 -14.566773 -9.833153 5.853585 -1.558771 0.487600 5.547486 -1.296229 -2.574569 2.956386 -0.251966 -5.188611 -3.260833 5.279801 -1.237304 3.411766 -3.527493 0.808858 -1.249218 -2.791734 -3.383688 3.544399 -1.944951 -4.513877 -4.258121 -1.810743 0.015985 4.531309 -2.914564 2.808298 3.544399 -1.944951 -4.513877 8.836541 -20.892517 -8.520675 3.614188 10.337913 -1.585487
0.130326 0.254329 0.117176 168.026307 -179.266227 11.813488 -0.251384 3.149320 -0.254192 0.000000 0.000000 0.000000 0.000000 0.000000 -0.000000 0.297030 -0.994469 -1.176738 3.697517 -0.218776 -6.068280 7.819413 -18.680356 -12.007551 7.699058 -2.234561 1.058267 6.791228 -1.456059 -2.174516 3.697517 -0.218776 -6.068280 -4.783529 4.903394 -1.486426 4.764291 -4.188453 0.757284 -1.724968 -4.181676 -4.503142 5.373744 -2.550244 -5.406023 -5.863447 -0.560450 0.219250 6.538605 -1.841022 4.004072 5.373744 -2.550244 -5.406023 11.268070 -29.494583 -6.159765 6.359019 1.293008 1.100320
0.140142 0.228274 0.112289 170.066642 -178.122136 10.948581 -0.159927 2.482917 -0.198836 0.000000 0.000000 0.000000 0.000000 0.000000 -0.000000 0.140942 -0.184807 -1.195646 4.801463 0.424936 -5.615440 6.636416 -15.686512 -10.380164 13.526610 -2.177848 0.204031 9.548967 -0.234101 6.561927 4.801463 0.424936 -5.615440 -5.796732 5.714661 -1.729052 6.286998 -4.572741 0.239646 -2.558540 -7.503621 -5.649406 7.361599 -2.535549 -4.504597 -7.455421 -2.301275 -0.136263 7.000331 -3.331794 4.392453 7.361599 -2.535549 -4.504597 14.838349 -37.405294 -5.596559 9.854703 5.874649 0.520084
0.147000 0.207717 0.116481 171.919780 -177.463971 10.570286 -0.041780 2.174101 -0.167016 0.000000 0.000000 0.000000 0.000000 0.000000 -0.000000 0.081916 -0.092241 -0.732206 4.608225 0.494853 -5.161971 6.653153 -14.189786 -9.604568 16.433193 -2.858298 0.330290 14.462805 -4.489245 -9.092831 4.608225 0.494853 -5.161971 -6.237324 5.202176 -1.775096 7.137459 -4.248007 -0.414156 -3.273205 -10.589618 -6.737313 9.178098 -2.651021 -4.072616 -7.971371 -1.811373 -0.064157 6.808541 -6.240793 4.470669 9.178098 -2.651021 -4.072616 18.502143 -45.772277 -4.870002 14.875441 1.429042 2.938583
0.150435 0.182029 0.121344 174.059384 -175.515048 10.585095 0.375811 0.517530 -0.004818 0.000000 0.000000 0.000000 0.000000 0.000000 -0.000000 -0.139968 0.722797 0.079917 5.148357 0.593273 -5.576721 9.204498 -17.196505 -11.383436 18.631549 -2.159044 -0.384404 22.944901 -7.102042 -10.653009 5.148357 0.593273 -5.576721 -6.625763 3.920670 -1.769253 8.844635 -2.943402 -2.311179 -3.775529 -12.431455 -8.601971 11.281568 -2.947712 -3.996279 -8.570122 -0.365888 0.324705 6.537840 -12.386876 4.713268 11.281568 -2.947712 -3.996279 21.316746 -57.516262 -0.400062 17.337689 -1.223814 4.485724
0.150948 0.170289 0.124098 175.281342 -173.830648 10.128489 1.194121 -1.087886 0.208013 0.000000 0.000000 0.000000 0.000000 0.000000 -0.000000 -0.116279 0.884696 -0.585271 5.252630 0.354104 -6.390416 14.840748 -25.176887 -15.229899 19.934892 -10.785151 8.101795 32.835876 -9.528861 -9.838857 5.252630 0.354104 -6.390416 -7.342955 -0.096041 -1.691898 12.649659 -7.352010 1.057344 -4.677740 -14.712922 -16.177128 12.479679 -2.931749 -3.523204 -8.406166 5.397703 2.349695 6.018177 -18.177884 4.712199 12.479679 -2.931749 -3.523204 24.627823 -74.699372 6.785108 16.083505 -6.448159 6.076517
0.151168 0.152347 0.129234 176.852911 -173.728746 10.007042 2.366006 -1.109977 0.333845 0.000000 0.000000 0.000000 0.000000 0.000000 -0.000000 -0.046934 0.821778 -1.296815 5.909862 0.493866 -6.809987 18.002174 -31.377898 -17.623712 21.333744 -14.756031 12.278759 39.169492 -10.376415 -7.764261 5.909862 0.493866 -6.809987 -7.105644 0.312558 -1.660196 14.696221 -8.385337 1.085200 -4.827728 -15.485472 -17.302555 14.024585 -3.090947 -3.346937 -7.892575 9.935454 4.166696 5.496304 -22.401740 4.548901 14.024585 -3.090947 -3.346937 26.577493 -74.156046 4.417087 15.142018 -6.074442 5.652660
0.151914 0.141408 0.128849 178.525184 -173.786205 9.998688 3.818220 -1.005450 0.476303 0.000000 0.000000 0.000000 0.000000 0.000000 -0.000000 -0.244405 2.076424 -1.976686 6.214579 0.589050 -6.916987 20.084903 -35.696770 -19.071927 22.879984 -20.495827 18.146422 43.718192 -9.218649 -3.069981 6.214579 0.589050 -6.916987 -8.330759 0.191150 -1.932753 18.131528 -10.784625 2.383167 -5.364108 -14.802896 -25.650097 15.668770 -3.309277 -3.270898 -6.390315 13.923840 5.842947 4.238490 -21.367060 3.371527 15.668770 -3.309277 -3.270898 24.274936 -66.500112 2.250554 16.201136 -7.749418 6.597339
0.154721 0.105269 0.130009 -179.658877 -173.797027 9.985647 4.900340 -0.861580 0.573100 0.000000 0.000000 0.000000 0.000000 0.000000 -0.000000 -0.253930 2.453766 -2.971344 6.980347 0.995840 -6.727614 14.100426 -30.389948 -17.441581 36.539362 -4.431143 4.571261 42.719559 -16.559709 -18.249271 6.980347 0.995840 -6.727614 -8.971195 4.037405 -2.228721 18.608029 -5.705239 -5.372533 -5.146447 -14.164790 -23.023973 17.453833 -3.545389 -3.184602 -5.038684 19.754059 8.570219 3.202021 -24.591733 2.556156 17.453833 -3.545389 -3.184602 22.263637 -58.563925 -0.506963 16.050271 -5.259454 5.628110
